<?xml version="1.0" encoding="UTF-8"?>
<svg width="1024px" height="1024px" viewBox="0 0 1024 1024" version="1.1" xmlns="http://www.w3.org/2000/svg" xmlns:xlink="http://www.w3.org/1999/xlink">
    <title>logo</title>
    <defs>
        <radialGradient cx="50.6269758%" cy="50%" fx="50.6269758%" fy="50%" r="47.1577251%" id="radialGradient-1">
            <stop stop-color="#6AACE9" offset="0%"></stop>
            <stop stop-color="#2C5282" offset="100%"></stop>
        </radialGradient>
    </defs>
    <g id="logo" stroke="none" stroke-width="1" fill="none" fill-rule="evenodd">
        <circle id="Oval" stroke="#BEE3F8" stroke-width="34" fill="#F7FAFC" cx="512" cy="512" r="457"></circle>
        <circle id="Oval-Copy" stroke="#3182CE" stroke-width="34" fill="url(#radialGradient-1)" cx="512" cy="512" r="457"></circle>
        <g id="Group" transform="translate(190.500000, 131.000000)" fill="#FFFFFF" fill-rule="nonzero">
            <path d="M342.664,701.164 C465.528,701.164 574.131,641.926 574.131,513.577 C574.131,453.242 537.93,406.071 492.953,385.228 C417.26,351.221 316.336,366.579 240.643,333.669 C194.569,313.923 167.144,285.401 167.144,232.745 C167.144,162.537 238.449,107.687 337.179,107.687 C394.223,107.687 452.364,127.433 491.856,165.828 L491.856,263.461 L551.094,263.461 L551.094,60.516 L491.856,60.516 L491.856,93.426 C449.073,62.71 390.932,47.352 333.888,47.352 C177.017,47.352 107.906,154.858 107.906,247.006 C107.906,351.221 193.472,386.325 213.218,395.101 C302.075,433.496 420.551,402.78 492.953,463.115 C508.311,477.376 513.796,500.413 513.796,523.45 C513.796,594.755 446.879,640.829 332.791,640.829 C263.68,640.829 193.472,621.083 139.719,577.203 L139.719,491.637 L79.384,491.637 L79.384,689.097 L139.719,689.097 L139.719,645.217 C207.733,692.388 292.202,701.164 342.664,701.164 Z" id="S"></path>
        </g>
    </g>
</svg>